<?xml version="1.0" encoding="utf-8"?>
<svg viewBox="38.135 46.437 415.644 423.541" xmlns="http://www.w3.org/2000/svg">
  <path fill="#5900FF" d="M 106.017 398.738 C 106.017 398.738 108.786 361.767 141.465 330.398 L 141.465 302.677 C 122.344 310.237 100.745 321.423 84.978 338.521 C 32.074 395.928 39.278 444.397 38.153 463.994 C 37.883 467.35 40.655 469.598 43.987 469.868 C 64.19 470.703 121.491 467.91 165.252 420.859 C 181.311 403.779 192.393 383.888 199.87 364.558 L 175.208 364.558 C 144.215 395.928 105.995 398.719 105.995 398.719 L 106.017 398.738 Z" style=""/>
  <path fill="#5900FF" d="M 450.775 56.499 C 449.94 50.877 449.94 50.877 444.378 50.044 C 410.053 44.462 292.913 29.881 192.684 152.834 L 135.927 153.126 C 131.659 153.932 128.046 156.746 126.22 160.686 L 88.561 248.626 C 86.625 252.813 89.124 257.583 93.83 257.583 L 146.173 257.583 C 144.507 261.499 142.569 281.659 142.569 286.992 C 142.569 292.304 137.863 287.263 176.894 327.607 C 216.781 367.933 224.53 363.725 231.738 362.6 C 234.489 362.33 245.569 360.642 245.569 360.642 L 245.299 412.735 C 245.299 417.213 249.734 420.026 254.151 418.068 L 341.381 380.244 C 345.244 378.299 348 374.691 348.859 370.454 C 348.859 370.454 348.297 316.403 348.859 316.111 C 464.312 223.422 457.126 94.305 450.753 56.499 L 450.775 56.499 Z M 296.515 257.583 C 267.73 257.583 244.464 234.045 244.464 204.925 C 244.396 176.093 267.7 152.654 296.537 152.563 C 325.321 152.563 348.567 176.1 348.567 205.217 C 348.728 234.082 325.38 257.57 296.515 257.583 Z" style=""/>
  <path fill="#5900FF" d="M 296.515 171.893 C 278.519 171.893 263.565 186.723 263.565 205.217 C 263.565 223.422 278.248 238.545 296.515 238.545 C 314.511 238.545 329.468 223.694 329.468 205.217 C 329.468 186.723 314.803 171.893 296.515 171.893 Z" style=""/>
</svg>